<svg xmlns="http://www.w3.org/2000/svg" width="900" height="1200" viewBox="0 0 900 1200"><rect width="900" height="1200" fill="#164d3f"/><ellipse cx="300" cy="450" rx="230" ry="70" transform="rotate(-35 300 450)" fill="#c7ce9a"/><ellipse cx="335" cy="508" rx="215" ry="70" transform="rotate(35 335 508)" fill="#96a77b"/><ellipse cx="370" cy="566" rx="200" ry="70" transform="rotate(-35 370 566)" fill="#c7ce9a"/><ellipse cx="405" cy="624" rx="185" ry="70" transform="rotate(35 405 624)" fill="#96a77b"/><ellipse cx="440" cy="682" rx="170" ry="70" transform="rotate(-35 440 682)" fill="#c7ce9a"/><ellipse cx="475" cy="740" rx="155" ry="70" transform="rotate(35 475 740)" fill="#96a77b"/><ellipse cx="510" cy="798" rx="140" ry="70" transform="rotate(-35 510 798)" fill="#c7ce9a"/><text x="60" y="108" fill="#efebdb" font-family="Arial" font-size="22" letter-spacing="4">STILL / EXPERIMENT 04</text><text x="55" y="232" fill="#efebdb" font-family="Arial" font-size="112" letter-spacing="-6">VERDANT</text><text x="60" y="1128" fill="#efebdb" font-family="Arial" font-size="24">A living visual language.</text><text x="60" y="1168" fill="#efebdb" font-family="Arial" font-size="14" letter-spacing="3">CONCEPT PROJECT / SAMPLE — 2026</text></svg>