<svg xmlns="http://www.w3.org/2000/svg" width="1600" height="1350" viewBox="0 0 1600 1350"><rect width="1600" height="1350" fill="#f7f5ef"/><g font-family="Malgun Gothic,Arial,sans-serif"><text x="50" y="52" font-size="17" text-anchor="start" fill="#35483f">STILL / BUILDING STUDY / D — OPEN ENTRIES</text><text x="50" y="104" font-size="38" text-anchor="start" fill="#35483f">중정을 둘러싼 여덟 전시실</text><text x="50" y="146" font-size="20" text-anchor="start" fill="#35483f">승인된 D 평면을 복원하고, 모든 전시실 입구 가벽을 제거했습니다.</text><path d="M50 174H1550" stroke="#a0ada4"/><rect x="350" y="238" width="918" height="918" fill="#dfebe4" stroke="none" stroke-width="1"/><path d="M605,408L673,408L673,493L945,493L945,408L1013,408L1013,1156L945,1156L945,901L673,901L673,986L605,986L605,408ZM673,561L673,833L945,833L945,561L673,561Z" fill="#e9d8b6"/><rect x="673" y="561" width="272" height="272" fill="#d9e7dd" stroke="#73999b" stroke-width="2"/><rect x="350" y="238" width="255" height="255" fill="#52665b" stroke="none" stroke-width="1"/><rect x="360.20000000000005" y="248.20000000000002" width="234.60000000000002" height="234.60000000000002" fill="#f3f0e6" stroke="none" stroke-width="1"/><rect x="593.95" y="418.19999999999993" width="11.05" height="54.400000000000006" fill="#e9d8b6" stroke="none" stroke-width="1"/><rect x="375.5" y="314.5" width="27.200000000000003" height="102" fill="#d2c6af" stroke="none" stroke-width="1"/><path d="M389.1 327.25L389.1 403.75" fill="none" stroke="#ba6949" stroke-width="3" /><text x="477.5" y="356.5" font-size="22" text-anchor="middle" fill="#35483f">전시실 01</text><text x="477.5" y="388.5" font-size="16" text-anchor="middle" fill="#35483f">한 작품 · 높이 12m</text><text x="477.5" y="414.5" font-size="13" text-anchor="middle" fill="#35483f">13.8 × 13.8m / 유효 실내</text><rect x="673" y="238" width="272" height="255" fill="#52665b" stroke="none" stroke-width="1"/><rect x="683.2" y="248.20000000000002" width="251.60000000000002" height="234.60000000000002" fill="#f3f0e6" stroke="none" stroke-width="1"/><rect x="781.8" y="481.95" width="54.400000000000006" height="11.05" fill="#e9d8b6" stroke="none" stroke-width="1"/><rect x="758" y="263.5" width="102" height="27.200000000000003" fill="#d2c6af" stroke="none" stroke-width="1"/><path d="M770.75 277.1L847.25 277.1" fill="none" stroke="#ba6949" stroke-width="3" /><text x="809" y="356.5" font-size="22" text-anchor="middle" fill="#35483f">전시실 02</text><text x="809" y="388.5" font-size="16" text-anchor="middle" fill="#35483f">한 작품 · 높이 12m</text><text x="809" y="414.5" font-size="13" text-anchor="middle" fill="#35483f">14.8 × 13.8m / 유효 실내</text><rect x="1013" y="238" width="255" height="255" fill="#52665b" stroke="none" stroke-width="1"/><rect x="1023.2" y="248.20000000000002" width="234.60000000000002" height="234.60000000000002" fill="#f3f0e6" stroke="none" stroke-width="1"/><rect x="1013" y="418.19999999999993" width="11.05" height="54.400000000000006" fill="#e9d8b6" stroke="none" stroke-width="1"/><rect x="1215.3" y="314.5" width="27.200000000000003" height="102" fill="#d2c6af" stroke="none" stroke-width="1"/><path d="M1228.9 327.25L1228.9 403.75" fill="none" stroke="#ba6949" stroke-width="3" /><text x="1140.5" y="356.5" font-size="22" text-anchor="middle" fill="#35483f">전시실 03</text><text x="1140.5" y="388.5" font-size="16" text-anchor="middle" fill="#35483f">한 작품 · 높이 12m</text><text x="1140.5" y="414.5" font-size="13" text-anchor="middle" fill="#35483f">13.8 × 13.8m / 유효 실내</text><rect x="1013" y="561" width="255" height="272" fill="#52665b" stroke="none" stroke-width="1"/><rect x="1023.2" y="571.2" width="234.60000000000002" height="251.60000000000002" fill="#f3f0e6" stroke="none" stroke-width="1"/><rect x="1013" y="669.8" width="11.05" height="54.400000000000006" fill="#e9d8b6" stroke="none" stroke-width="1"/><rect x="1215.3" y="646" width="27.200000000000003" height="102" fill="#d2c6af" stroke="none" stroke-width="1"/><path d="M1228.9 658.75L1228.9 735.25" fill="none" stroke="#ba6949" stroke-width="3" /><text x="1140.5" y="688" font-size="22" text-anchor="middle" fill="#35483f">전시실 04</text><text x="1140.5" y="720" font-size="16" text-anchor="middle" fill="#35483f">한 작품 · 높이 12m</text><text x="1140.5" y="746" font-size="13" text-anchor="middle" fill="#35483f">13.8 × 14.8m / 유효 실내</text><rect x="1013" y="901" width="255" height="255" fill="#52665b" stroke="none" stroke-width="1"/><rect x="1023.2" y="911.2" width="234.60000000000002" height="234.60000000000002" fill="#f3f0e6" stroke="none" stroke-width="1"/><rect x="1013" y="921.4000000000001" width="11.05" height="54.400000000000006" fill="#e9d8b6" stroke="none" stroke-width="1"/><rect x="1215.3" y="977.5" width="27.200000000000003" height="102" fill="#d2c6af" stroke="none" stroke-width="1"/><path d="M1228.9 990.25L1228.9 1066.75" fill="none" stroke="#ba6949" stroke-width="3" /><text x="1140.5" y="1019.5" font-size="22" text-anchor="middle" fill="#35483f">전시실 05</text><text x="1140.5" y="1051.5" font-size="16" text-anchor="middle" fill="#35483f">한 작품 · 높이 12m</text><text x="1140.5" y="1077.5" font-size="13" text-anchor="middle" fill="#35483f">13.8 × 13.8m / 유효 실내</text><rect x="673" y="901" width="272" height="255" fill="#52665b" stroke="none" stroke-width="1"/><rect x="683.2" y="911.2" width="251.60000000000002" height="234.60000000000002" fill="#f3f0e6" stroke="none" stroke-width="1"/><rect x="781.8" y="901" width="54.400000000000006" height="11.05" fill="#e9d8b6" stroke="none" stroke-width="1"/><rect x="758" y="1103.3" width="102" height="27.200000000000003" fill="#d2c6af" stroke="none" stroke-width="1"/><path d="M770.75 1116.9L847.25 1116.9" fill="none" stroke="#ba6949" stroke-width="3" /><text x="809" y="1019.5" font-size="22" text-anchor="middle" fill="#35483f">전시실 06</text><text x="809" y="1051.5" font-size="16" text-anchor="middle" fill="#35483f">한 작품 · 높이 12m</text><text x="809" y="1077.5" font-size="13" text-anchor="middle" fill="#35483f">14.8 × 13.8m / 유효 실내</text><rect x="350" y="901" width="255" height="255" fill="#52665b" stroke="none" stroke-width="1"/><rect x="360.20000000000005" y="911.2" width="234.60000000000002" height="234.60000000000002" fill="#f3f0e6" stroke="none" stroke-width="1"/><rect x="593.95" y="921.4000000000001" width="11.05" height="54.400000000000006" fill="#e9d8b6" stroke="none" stroke-width="1"/><rect x="375.5" y="977.5" width="27.200000000000003" height="102" fill="#d2c6af" stroke="none" stroke-width="1"/><path d="M389.1 990.25L389.1 1066.75" fill="none" stroke="#ba6949" stroke-width="3" /><text x="477.5" y="1019.5" font-size="22" text-anchor="middle" fill="#35483f">전시실 07</text><text x="477.5" y="1051.5" font-size="16" text-anchor="middle" fill="#35483f">한 작품 · 높이 12m</text><text x="477.5" y="1077.5" font-size="13" text-anchor="middle" fill="#35483f">13.8 × 13.8m / 유효 실내</text><rect x="350" y="561" width="255" height="272" fill="#52665b" stroke="none" stroke-width="1"/><rect x="360.20000000000005" y="571.2" width="234.60000000000002" height="251.60000000000002" fill="#f3f0e6" stroke="none" stroke-width="1"/><rect x="593.95" y="669.8" width="11.05" height="54.400000000000006" fill="#e9d8b6" stroke="none" stroke-width="1"/><rect x="375.5" y="646" width="27.200000000000003" height="102" fill="#d2c6af" stroke="none" stroke-width="1"/><path d="M389.1 658.75L389.1 735.25" fill="none" stroke="#ba6949" stroke-width="3" /><text x="477.5" y="688" font-size="22" text-anchor="middle" fill="#35483f">전시실 08</text><text x="477.5" y="720" font-size="16" text-anchor="middle" fill="#35483f">한 작품 · 높이 12m</text><text x="477.5" y="746" font-size="13" text-anchor="middle" fill="#35483f">13.8 × 14.8m / 유효 실내</text><text x="809" y="680" font-size="29" text-anchor="middle" fill="#35483f">채광 중정</text><text x="809" y="715.7" font-size="18" text-anchor="middle" fill="#35483f">16 × 16m · 높이 14m</text><text x="809" y="749.7" font-size="14" text-anchor="middle" fill="#35483f">작품 없는 열린 중심 공간</text><path d="M639 527L979 527" fill="none" stroke="#b76948" stroke-width="2" stroke-dasharray="7 8"/><path d="M979 527L979 867" fill="none" stroke="#b76948" stroke-width="2" stroke-dasharray="7 8"/><path d="M979 867L639 867" fill="none" stroke="#b76948" stroke-width="2" stroke-dasharray="7 8"/><path d="M639 867L639 527" fill="none" stroke="#b76948" stroke-width="2" stroke-dasharray="7 8"/><path d="M350 200.60000000000002L1268 200.60000000000002" fill="none" stroke="#a0ada4" stroke-width="1" /><text x="809" y="187" font-size="19" text-anchor="middle" fill="#35483f">54m / 외벽 바깥면 기준</text><path d="M1302 238L1302 1156" fill="none" stroke="#a0ada4" stroke-width="1" /><text x="1310.5" y="697" font-size="17" text-anchor="start" fill="#35483f">54m</text><text x="979" y="1193.4" font-size="18" text-anchor="middle" fill="#35483f">입구</text><path d="M350 1207L605 1207" fill="none" stroke="#a0ada4" stroke-width="1" /><text x="477.5" y="1232.5" font-size="16" text-anchor="middle" fill="#35483f">15m</text><path d="M605 1207L673 1207" fill="none" stroke="#a0ada4" stroke-width="1" /><text x="639" y="1232.5" font-size="16" text-anchor="middle" fill="#35483f">4m</text><path d="M673 1207L945 1207" fill="none" stroke="#a0ada4" stroke-width="1" /><text x="809" y="1232.5" font-size="16" text-anchor="middle" fill="#35483f">16m</text><path d="M945 1207L1013 1207" fill="none" stroke="#a0ada4" stroke-width="1" /><text x="979" y="1232.5" font-size="16" text-anchor="middle" fill="#35483f">4m</text><path d="M1013 1207L1268 1207" fill="none" stroke="#a0ada4" stroke-width="1" /><text x="1140.5" y="1232.5" font-size="16" text-anchor="middle" fill="#35483f">15m</text><text x="50" y="254" font-size="22" text-anchor="start" fill="#35483f">01  원본 D 배치</text><text x="50" y="291" font-size="18" text-anchor="start" fill="#35483f">54 × 54m 외곽</text><text x="50" y="320" font-size="18" text-anchor="start" fill="#35483f">중정 둘레의 폭 4m 회랑</text><text x="50" y="394" font-size="22" text-anchor="start" fill="#35483f">02  가벽 제거</text><text x="50" y="431" font-size="18" text-anchor="start" fill="#35483f">입구 바로 앞 가벽 8개 제거</text><text x="50" y="460" font-size="18" text-anchor="start" fill="#35483f">우회하지 않고 작품으로 접근</text><text x="50" y="534" font-size="22" text-anchor="start" fill="#35483f">03  높이와 작품</text><text x="50" y="571" font-size="18" text-anchor="start" fill="#35483f">전시실 12m / 중정 14m</text><text x="50" y="600" font-size="18" text-anchor="start" fill="#35483f">회랑 4.2m / 출입구 3.6m</text><text x="50" y="629" font-size="18" text-anchor="start" fill="#35483f">작품 예시 4.5 × 6m</text><text x="50" y="707" font-size="22" text-anchor="start" fill="#35483f">04  변하지 않는 원칙</text><text x="50" y="744" font-size="18" text-anchor="start" fill="#35483f">각 방에는 작품 하나</text><text x="50" y="773" font-size="18" text-anchor="start" fill="#35483f">옆 전시실을 거치지 않는 동선</text><text x="1350" y="280" font-size="22" text-anchor="start" fill="#35483f">도면 읽기</text><text x="1350" y="328" font-size="17" text-anchor="start" fill="#35483f">주황선 = 작품</text><text x="1350" y="364" font-size="17" text-anchor="start" fill="#35483f">베이지 = 회랑</text><text x="1350" y="400" font-size="17" text-anchor="start" fill="#35483f">연녹색 = 빛 우물</text><text x="1350" y="436" font-size="17" text-anchor="start" fill="#35483f">짙은색 = 0.6m 벽</text><text x="1350" y="510" font-size="24" text-anchor="start" fill="#35483f">가벽 없음</text><path d="M50 1293H1550" stroke="#a0ada4"/><text x="50" y="1324" font-size="16" text-anchor="start" fill="#35483f">가상 전시관 제작 기준 · 단위 m · 실제 시공용 구조 도면이 아닙니다.</text><text x="1310" y="1324" font-size="16" text-anchor="start" fill="#35483f">D-OPEN / 01</text></g></svg>