<svg xmlns="http://www.w3.org/2000/svg" width="1600" height="830"><rect width="100%" height="100%" fill="#f7f5ef"/><g font-family="Malgun Gothic,Arial,sans-serif"><text x="50" y="50" font-size="17" text-anchor="start" fill="#35483f">STILL / D — OPEN ENTRIES / SECTION B–B</text><text x="50" y="104" font-size="38" text-anchor="start" fill="#35483f">가벽 없이 연결되는 회랑과 전시실</text><text x="50" y="146" font-size="20" text-anchor="start" fill="#35483f">전시실 02 → 순환 회랑 → 채광 중정 → 순환 회랑 → 전시실 06</text><path d="M50 174H1550" stroke="#a0ada4"/><rect x="125" y="600" width="1350" height="5.5" fill="#53675c"/><rect x="125" y="291.25" width="375" height="8.75" fill="#53675c"/><rect x="125" y="300" width="15" height="300" fill="#53675c"/><rect x="485" y="300" width="15" height="210" fill="#53675c"/><rect x="500" y="487.5" width="100" height="7.5" fill="#b9b39f"/><rect x="592.5" y="250" width="7.5" height="245.00000000000003" fill="#53675c"/><rect x="162.5" y="588.75" width="40" height="11.25" fill="#c8bda7"/><rect x="181.00000000000006" y="433.75" width="3" height="150" fill="#b96745"/><rect x="217.5" y="290.25" width="50" height="10" fill="#d7e8e2"/><text x="312.5" y="655" font-size="22" text-anchor="middle" fill="#35483f">전시실 02 · 12m</text><text x="550" y="655" font-size="18" text-anchor="middle" fill="#35483f">회랑</text><rect x="1100" y="291.25" width="375" height="8.75" fill="#53675c"/><rect x="1460" y="300" width="15" height="300" fill="#53675c"/><rect x="1100" y="300" width="15" height="210" fill="#53675c"/><rect x="1000" y="487.5" width="100" height="7.5" fill="#b9b39f"/><rect x="1000" y="250" width="7.5" height="245.00000000000003" fill="#53675c"/><rect x="1397.5" y="588.75" width="40" height="11.25" fill="#c8bda7"/><rect x="1416" y="433.75" width="3" height="150" fill="#b96745"/><rect x="1332.5" y="290.25" width="50" height="10" fill="#d7e8e2"/><text x="1287.5" y="655" font-size="22" text-anchor="middle" fill="#35483f">전시실 06 · 12m</text><text x="1050" y="655" font-size="18" text-anchor="middle" fill="#35483f">회랑</text><path d="M592.5 242.5H1007.4999999999999" stroke="#779a9c" stroke-width="5"/><text x="800" y="387.5" font-size="32" text-anchor="middle" fill="#35483f">채광 중정</text><text x="800" y="430" font-size="21" text-anchor="middle" fill="#35483f">16m 폭 · 14m 높이</text><text x="800" y="655" font-size="19" text-anchor="middle" fill="#35483f">중정과 회랑 사이가 열려 있습니다</text><text x="455" y="475" font-size="17" text-anchor="middle" fill="#35483f">4.2m</text><text x="572.5" y="550" font-size="16" text-anchor="middle" fill="#35483f">3.6m</text><text x="312.5" y="402.5" font-size="17" text-anchor="middle" fill="#35483f">작품 6m</text><text x="50" y="721" font-size="20" text-anchor="start" fill="#35483f">입구 가벽 8개 제거 · 전시실 높이 12m · 벽 두께 0.6m · 받침대 높이 0.45m</text><text x="50" y="757" font-size="18" text-anchor="start" fill="#35483f">바닥은 모두 같은 높이입니다. 치수와 입구·작품 위치는 수정 평면도와 동일합니다.</text><path d="M50 787H1550" stroke="#a0ada4"/><text x="50" y="815" font-size="15" text-anchor="start" fill="#35483f">가상 전시관 제작 기준 · 단위 m · 실제 시공용 구조 도면이 아닙니다.</text><text x="1380" y="815" font-size="15" text-anchor="start" fill="#35483f">D-OPEN / 02</text></g></svg>